font.ufo
<glyph name="Bstroke.sc" format="1">
	<advance width="525"/>
	<outline>
		<contour>
			<point x="116" y="0" type="line"/>
			<point x="273" y="0" type="line" smooth="yes"/>
			<point x="399" y="0"/>
			<point x="479" y="50"/>
			<point x="479" y="149" type="curve" smooth="yes"/>
			<point x="479" y="219"/>
			<point x="426" y="260"/>
			<point x="355" y="272" type="curve"/>
			<point x="355" y="276" type="line"/>
			<point x="412" y="292"/>
			<point x="444" y="332"/>
			<point x="444" y="385" type="curve" smooth="yes"/>
			<point x="444" y="471"/>
			<point x="374" y="510"/>
			<point x="262" y="510" type="curve" smooth="yes"/>
			<point x="116" y="510" type="line"/>
		</contour>
		<contour>
			<point x="148" y="284" type="line"/>
			<point x="148" y="484" type="line"/>
			<point x="251" y="484" type="line" smooth="yes"/>
			<point x="357" y="484"/>
			<point x="413" y="455"/>
			<point x="413" y="387" type="curve" smooth="yes"/>
			<point x="413" y="319"/>
			<point x="365" y="284"/>
			<point x="246" y="284" type="curve" smooth="yes"/>
		</contour>
		<contour>
			<point x="148" y="26" type="line"/>
			<point x="148" y="258" type="line"/>
			<point x="263" y="258" type="line" smooth="yes"/>
			<point x="381" y="258"/>
			<point x="448" y="223"/>
			<point x="448" y="147" type="curve" smooth="yes"/>
			<point x="448" y="55"/>
			<point x="371" y="26"/>
			<point x="263" y="26" type="curve" smooth="yes"/>
		</contour>
		<contour>
			<point x="38" y="132" type="line"/>
			<point x="300" y="132" type="line"/>
			<point x="300" y="160" type="line"/>
			<point x="117" y="160" type="line"/>
			<point x="38" y="158" type="line"/>
		</contour>
	</outline>
</glyph>
<glyph name="Fita" format="1">
	<advance width="648"/>
	<outline>
		<contour>
			<point x="324" y="-12" type="curve" smooth="yes"/>
			<point x="482" y="-12"/>
			<point x="592" y="116"/>
			<point x="592" y="332" type="curve" smooth="yes"/>
			<point x="592" y="548"/>
			<point x="482" y="672"/>
			<point x="324" y="672" type="curve" smooth="yes"/>
			<point x="166" y="672"/>
			<point x="56" y="548"/>
			<point x="56" y="332" type="curve" smooth="yes"/>
			<point x="56" y="116"/>
			<point x="166" y="-12"/>
		</contour>
		<contour>
			<point x="324" y="18" type="curve" smooth="yes"/>
			<point x="182" y="18"/>
			<point x="88" y="132"/>
			<point x="88" y="338" type="curve" smooth="yes"/>
			<point x="88" y="528"/>
			<point x="182" y="642"/>
			<point x="324" y="642" type="curve" smooth="yes"/>
			<point x="466" y="642"/>
			<point x="560" y="528"/>
			<point x="560" y="338" type="curve" smooth="yes"/>
			<point x="560" y="132"/>
			<point x="466" y="18"/>
		</contour>
		<contour>
			<point x="76" y="338" type="line"/>
			<point x="568" y="338" type="line"/>
			<point x="568" y="366" type="line"/>
			<point x="76" y="366" type="line"/>
		</contour>
		<contour>
			<point name="aboveUC" x="324" y="682" type="move"/>
		</contour>
	</outline>
</glyph>
<glyph name="G" format="1">
	<advance width="600"/>
	<outline>
		<contour>
			<point x="334" y="-12" type="curve" smooth="yes"/>
			<point x="420" y="-12"/>
			<point x="486" y="18"/>
			<point x="526" y="62" type="curve"/>
			<point x="526" y="318" type="line"/>
			<point x="330" y="318" type="line"/>
			<point x="330" y="290" type="line"/>
			<point x="494" y="290" type="line"/>
			<point x="494" y="72" type="line"/>
			<point x="460" y="38"/>
			<point x="400" y="18"/>
			<point x="336" y="18" type="curve" smooth="yes"/>
			<point x="182" y="18"/>
			<point x="90" y="142"/>
			<point x="90" y="332" type="curve" smooth="yes"/>
			<point x="90" y="522"/>
			<point x="186" y="642"/>
			<point x="344" y="642" type="curve" smooth="yes"/>
			<point x="418" y="642"/>
			<point x="466" y="610"/>
			<point x="500" y="572" type="curve"/>
			<point x="520" y="594" type="line"/>
			<point x="486" y="630"/>
			<point x="432" y="672"/>
			<point x="344" y="672" type="curve" smooth="yes"/>
			<point x="170" y="672"/>
			<point x="56" y="540"/>
			<point x="56" y="332" type="curve" smooth="yes"/>
			<point x="56" y="124"/>
			<point x="166" y="-12"/>
		</contour>
		<contour>
			<point name="aboveUC" x="342" y="682" type="move"/>
		</contour>
		<contour>
			<point name="belowLC" x="336" y="-22" type="move"/>
		</contour>
	</outline>
</glyph>
<glyph name="Gamma" format="1">
	<advance width="480"/>
	<outline>
		<contour>
			<point x="100" y="0" type="line"/>
			<point x="132" y="0" type="line"/>
			<point x="132" y="632" type="line"/>
			<point x="452" y="632" type="line"/>
			<point x="452" y="660" type="line"/>
			<point x="100" y="660" type="line"/>
		</contour>
	</outline>
</glyph>
<glyph name="I" format="1">
	<advance width="232"/>
	<outline>
		<contour>
			<point x="100" y="0" type="line"/>
			<point x="132" y="0" type="line"/>
			<point x="132" y="660" type="line"/>
			<point x="100" y="660" type="line"/>
		</contour>
		<contour>
			<point name="aboveUC" x="116" y="682" type="move"/>
		</contour>
		<contour>
			<point name="belowLC" x="116" y="-22" type="move"/>
		</contour>
		<contour>
			<point name="ogonekUC" x="90" y="0" type="move"/>
		</contour>
	</outline>
</glyph>
<glyph name="Kabashkir.a" format="1">
	<advance width="700"/>
	<outline>
		<contour>
			<point x="30" y="632" type="line"/>
			<point x="244" y="632" type="line"/>
			<point x="276" y="660" type="line"/>
			<point x="30" y="660" type="line"/>
		</contour>
		<component base="Ka.a" xOffset="144"/>
	</outline>
</glyph>
<glyph name="T" format="1">
	<advance width="520"/>
	<outline>
		<contour>
			<point x="244" y="0" type="line"/>
			<point x="276" y="0" type="line"/>
			<point x="276" y="632" type="line"/>
			<point x="490" y="632" type="line"/>
			<point x="490" y="660" type="line"/>
			<point x="30" y="660" type="line"/>
			<point x="30" y="632" type="line"/>
			<point x="244" y="632" type="line"/>
		</contour>
		<contour>
			<point name="aboveUC" x="258" y="682" type="move"/>
		</contour>
		<contour>
			<point name="belowLC" x="260" y="-22" type="move"/>
		</contour>
		<contour>
			<point name="baseLC" x="260" y="0" type="move"/>
		</contour>
	</outline>
</glyph>
<glyph name="V" format="1">
	<advance width="482"/>
	<outline>
		<contour>
			<point x="226" y="0" type="line"/>
			<point x="258" y="0" type="line"/>
			<point x="476" y="660" type="line"/>
			<point x="444" y="660" type="line"/>
			<point x="316" y="264" type="line" smooth="yes"/>
			<point x="290" y="182"/>
			<point x="272" y="122"/>
			<point x="244" y="41" type="curve"/>
			<point x="240" y="41" type="line"/>
			<point x="212" y="122"/>
			<point x="194" y="182"/>
			<point x="168" y="264" type="curve" smooth="yes"/>
			<point x="40" y="660" type="line"/>
			<point x="6" y="660" type="line"/>
		</contour>
		<contour>
			<point name="aboveUC" x="240" y="682" type="move"/>
		</contour>
		<contour>
			<point name="belowLC" x="244" y="-22" type="move"/>
		</contour>
	</outline>
</glyph>
<glyph name="Zhe.b" format="1">
	<advance width="746"/>
	<outline>
		<contour>
			<point x="16" y="0" type="line"/>
			<point x="52" y="0" type="line"/>
			<point x="246" y="338" type="line"/>
			<point x="356" y="338" type="line"/>
			<point x="356" y="0" type="line"/>
			<point x="388" y="0" type="line"/>
			<point x="388" y="338" type="line"/>
			<point x="498" y="338" type="line"/>
			<point x="692" y="0" type="line"/>
			<point x="728" y="0" type="line"/>
			<point x="524" y="356" type="line"/>
			<point x="724" y="660" type="line"/>
			<point x="686" y="660" type="line"/>
			<point x="496" y="366" type="line"/>
			<point x="388" y="366" type="line"/>
			<point x="388" y="660" type="line"/>
			<point x="356" y="660" type="line"/>
			<point x="356" y="366" type="line"/>
			<point x="248" y="366" type="line"/>
			<point x="58" y="660" type="line"/>
			<point x="20" y="660" type="line"/>
			<point x="220" y="356" type="line"/>
		</contour>
	</outline>
</glyph>
<glyph name="a.alt" format="1">
	<advance width="540"/>
	<outline>
		<component base="alphalatin"/>
		<contour>
			<point name="aboveLC" x="268" y="502" type="move"/>
		</contour>
		<contour>
			<point name="belowLC" x="268" y="-22" type="move"/>
		</contour>
		<contour>
			<point name="ogonekLC" x="380" y="0" type="move"/>
		</contour>
	</outline>
</glyph>
<glyph name="aogonek" format="1">
	<advance width="486"/>
	<outline>
		<contour>
			<point x="366" y="-202" type="curve" smooth="yes"/>
			<point x="386" y="-202"/>
			<point x="412" y="-192"/>
			<point x="426" y="-180" type="curve"/>
			<point x="412" y="-160" type="line"/>
			<point x="398" y="-170"/>
			<point x="386" y="-174"/>
			<point x="368" y="-174" type="curve" smooth="yes"/>
			<point x="342" y="-174"/>
			<point x="318" y="-156"/>
			<point x="318" y="-120" type="curve" smooth="yes"/>
			<point x="318" y="-76"/>
			<point x="356" y="-26"/>
			<point x="404" y="0" type="curve"/>
			<point x="404" y="310" type="line" smooth="yes"/>
			<point x="404" y="406"/>
			<point x="370" y="490"/>
			<point x="258" y="490" type="curve" smooth="yes"/>
			<point x="180" y="490"/>
			<point x="114" y="450"/>
			<point x="84" y="428" type="curve"/>
			<point x="100" y="404" type="line"/>
			<point x="130" y="428"/>
			<point x="188" y="462"/>
			<point x="256" y="462" type="curve" smooth="yes"/>
			<point x="356" y="462"/>
			<point x="376" y="376"/>
			<point x="374" y="298" type="curve"/>
			<point x="158" y="274"/>
			<point x="60" y="224"/>
			<point x="60" y="116" type="curve" smooth="yes"/>
			<point x="60" y="26"/>
			<point x="124" y="-12"/>
			<point x="198" y="-12" type="curve" smooth="yes"/>
			<point x="262" y="-12"/>
			<point x="322" y="24"/>
			<point x="372" y="64" type="curve"/>
			<point x="374" y="64" type="line"/>
			<point x="378" y="8" type="line"/>
			<point x="328" y="-22"/>
			<point x="288" y="-72"/>
			<point x="288" y="-122" type="curve" smooth="yes"/>
			<point x="288" y="-176"/>
			<point x="322" y="-202"/>
		</contour>
		<contour>
			<point x="200" y="16" type="curve" smooth="yes"/>
			<point x="142" y="16"/>
			<point x="92" y="44"/>
			<point x="92" y="118" type="curve" smooth="yes"/>
			<point x="92" y="200"/>
			<point x="164" y="248"/>
			<point x="374" y="272" type="curve"/>
			<point x="374" y="98" type="line"/>
			<point x="310" y="44"/>
			<point x="258" y="16"/>
		</contour>
		<contour>
			<point name="aboveLC" x="260" y="502" type="move"/>
		</contour>
	</outline>
</glyph>
<glyph name="brevecmb.cap" format="1">
  <advance width="0"/>
  <outline>
    <contour>
      <point x="0" y="712" type="curve" smooth="yes"/>
      <point x="87" y="712"/>
      <point x="125" y="779"/>
      <point x="132" y="834" type="curve"/>
      <point x="106" y="838" type="line"/>
      <point x="99" y="786"/>
      <point x="67" y="738"/>
      <point x="0" y="738" type="curve" smooth="yes"/>
      <point x="-67" y="738"/>
      <point x="-99" y="786"/>
      <point x="-106" y="838" type="curve"/>
      <point x="-132" y="834" type="line"/>
      <point x="-125" y="779"/>
      <point x="-87" y="712"/>
    </contour>
    <contour>
      <point x="0" y="682" type="move" name="_aboveUC"/>
    </contour>
  </outline>
</glyph>
<glyph name="caronbelowcmb" format="1">
  <advance width="0"/>
  <outline>
    <component base="caroncmb" yOffset="-794"/>
    <contour>
      <point x="0" y="-22" type="move" name="_belowLC"/>
    </contour>
  </outline>
</glyph>
<glyph name="cedilla" format="1">
	<advance width="532"/>
	<outline>
		<component base="cedillacmb" xOffset="276"/>
		<contour>
			<point name="_baseLC" x="276" y="0" type="move"/>
		</contour>
	</outline>
</glyph>
<glyph name="dieresis" format="1">
	<advance width="532"/>
	<outline>
		<component base="dieresiscmb" xOffset="266"/>
		<contour>
			<point name="_aboveLC" x="266" y="502" type="move"/>
		</contour>
	</outline>
</glyph>
<glyph name="dieresiscmb" format="1">
  <advance width="0"/>
  <outline>
    <contour>
      <point x="-86" y="602" type="curve" smooth="yes"/>
      <point x="-68" y="602"/>
      <point x="-54" y="616"/>
      <point x="-54" y="634" type="curve" smooth="yes"/>
      <point x="-54" y="652"/>
      <point x="-68" y="666"/>
      <point x="-86" y="666" type="curve" smooth="yes"/>
      <point x="-104" y="666"/>
      <point x="-118" y="652"/>
      <point x="-118" y="634" type="curve" smooth="yes"/>
      <point x="-118" y="616"/>
      <point x="-104" y="602"/>
    </contour>
    <contour>
      <point x="86" y="602" type="curve" smooth="yes"/>
      <point x="104" y="602"/>
      <point x="118" y="616"/>
      <point x="118" y="634" type="curve" smooth="yes"/>
      <point x="118" y="652"/>
      <point x="104" y="666"/>
      <point x="86" y="666" type="curve" smooth="yes"/>
      <point x="68" y="666"/>
      <point x="54" y="652"/>
      <point x="54" y="634" type="curve" smooth="yes"/>
      <point x="54" y="616"/>
      <point x="68" y="602"/>
    </contour>
    <contour>
      <point x="0" y="502" type="move" name="_aboveLC"/>
    </contour>
    <contour>
      <point x="0" y="674" type="move" name="aboveLC"/>
    </contour>
  </outline>
</glyph>
<glyph name="endash" format="1">
	<advance width="480"/>
	<outline>
		<contour>
			<point x="40" y="236" type="line"/>
			<point x="440" y="236" type="line"/>
			<point x="440" y="264" type="line"/>
			<point x="40" y="264" type="line"/>
		</contour>
	</outline>
</glyph>
<glyph name="gammalatinsupmod" format="1">
	<advance width="289"/>
	<outline>
		<contour>
			<point x="129" y="425" type="line"/>
			<point x="162" y="425" type="line"/>
			<point x="281" y="726" type="line"/>
			<point x="253" y="726" type="line"/>
			<point x="180" y="534" type="line"/>
			<point x="169" y="504"/>
			<point x="157" y="479"/>
			<point x="147" y="451" type="curve"/>
			<point x="144" y="451" type="line"/>
			<point x="134" y="479"/>
			<point x="122" y="504"/>
			<point x="111" y="534" type="curve"/>
			<point x="38" y="726" type="line"/>
			<point x="8" y="726" type="line"/>
		</contour>
		<contour>
			<point x="145" y="256" type="curve" smooth="yes"/>
			<point x="183" y="256"/>
			<point x="202" y="283"/>
			<point x="202" y="320" type="curve" smooth="yes"/>
			<point x="202" y="351"/>
			<point x="185" y="384"/>
			<point x="161" y="437" type="curve"/>
			<point x="129" y="437" type="line"/>
			<point x="106" y="384"/>
			<point x="89" y="351"/>
			<point x="89" y="320" type="curve" smooth="yes"/>
			<point x="89" y="283"/>
			<point x="108" y="256"/>
		</contour>
		<contour>
			<point x="145" y="279" type="curve" smooth="yes"/>
			<point x="125" y="279"/>
			<point x="117" y="297"/>
			<point x="117" y="319" type="curve" smooth="yes"/>
			<point x="117" y="343"/>
			<point x="128" y="379"/>
			<point x="144" y="411" type="curve"/>
			<point x="147" y="411" type="line"/>
			<point x="163" y="379"/>
			<point x="174" y="345"/>
			<point x="174" y="319" type="curve" smooth="yes"/>
			<point x="174" y="297"/>
			<point x="166" y="279"/>
		</contour>
	</outline>
</glyph>
<glyph name="ogonekcmb" format="1">
	<outline>
		<contour>
			<point x="28" y="-202" type="curve" smooth="yes"/>
			<point x="48" y="-202"/>
			<point x="74" y="-192"/>
			<point x="88" y="-180" type="curve"/>
			<point x="74" y="-160" type="line"/>
			<point x="60" y="-170"/>
			<point x="48" y="-174"/>
			<point x="30" y="-174" type="curve" smooth="yes"/>
			<point x="4" y="-174"/>
			<point x="-20" y="-156"/>
			<point x="-20" y="-120" type="curve" smooth="yes"/>
			<point x="-20" y="-76"/>
			<point x="12" y="-30"/>
			<point x="60" y="4" type="curve"/>
			<point x="22" y="4" type="line"/>
			<point x="-16" y="-26"/>
			<point x="-50" y="-72"/>
			<point x="-50" y="-122" type="curve" smooth="yes"/>
			<point x="-50" y="-176"/>
			<point x="-16" y="-202"/>
		</contour>
		<contour>
			<point name="_ogonekLC" x="0" y="0" type="move"/>
		</contour>
	</outline>
</glyph>
<glyph name="squarebelowcmb" format="1">
	<outline>
		<contour>
			<point x="-116" y="-234" type="line"/>
			<point x="116" y="-234" type="line"/>
			<point x="116" y="-86" type="line"/>
			<point x="-116" y="-86" type="line"/>
		</contour>
		<contour>
			<point x="-90" y="-206" type="line"/>
			<point x="-90" y="-114" type="line"/>
			<point x="90" y="-114" type="line"/>
			<point x="90" y="-206" type="line"/>
		</contour>
		<contour>
			<point name="_belowLC" x="0" y="-22" type="move"/>
		</contour>
	</outline>
</glyph>
<glyph name="theta.alt" format="1">
	<advance width="500"/>
	<outline>
		<contour>
			<point x="246" y="-12" type="curve" smooth="yes"/>
			<point x="346" y="-12"/>
			<point x="432" y="64"/>
			<point x="432" y="368" type="curve" smooth="yes"/>
			<point x="432" y="614"/>
			<point x="366" y="734"/>
			<point x="230" y="734" type="curve" smooth="yes"/>
			<point x="149" y="734"/>
			<point x="79" y="670"/>
			<point x="79" y="561" type="curve" smooth="yes"/>
			<point x="79" y="444"/>
			<point x="162" y="320"/>
			<point x="408" y="360" type="curve"/>
			<point x="410" y="388" type="line"/>
			<point x="176" y="348"/>
			<point x="113" y="458"/>
			<point x="113" y="563" type="curve" smooth="yes"/>
			<point x="113" y="655"/>
			<point x="166" y="706"/>
			<point x="230" y="706" type="curve" smooth="yes"/>
			<point x="338" y="706"/>
			<point x="400" y="608"/>
			<point x="400" y="368" type="curve" smooth="yes"/>
			<point x="400" y="90"/>
			<point x="332" y="16"/>
			<point x="248" y="16" type="curve" smooth="yes"/>
			<point x="186" y="16"/>
			<point x="126" y="52"/>
			<point x="126" y="166" type="curve" smooth="yes"/>
			<point x="126" y="236"/>
			<point x="128" y="270"/>
			<point x="120" y="298" type="curve"/>
			<point x="92" y="298" type="line"/>
			<point x="98" y="260"/>
			<point x="98" y="232"/>
			<point x="98" y="165" type="curve"/>
			<point x="98" y="34"/>
			<point x="166" y="-12"/>
		</contour>
	</outline>
</glyph>
